<svg width="200" height="200" viewBox="0 0 200 200" xmlns="http://www.w3.org/2000/svg">
  <!-- Solid Color Background -->
  <rect width="200" height="200" fill="#764ba2" rx="20"/>
  
  <!-- Main Cookie Body - Flat square with rounded corners -->
  <rect x="35" y="35" width="130" height="130" fill="#F5B97F" rx="12"/>
  
  <!-- Bite Mark - Larger circular cutout -->
  <circle cx="145" cy="45" r="35" fill="#764ba2"/>
  
  <!-- Flat Chocolate Chips - Simple circles, various sizes -->
  <circle cx="65" cy="65" r="7" fill="#3E2723"/>
  <circle cx="95" cy="60" r="8" fill="#4E342E"/>
  <circle cx="75" cy="90" r="6" fill="#3E2723"/>
  <circle cx="110" cy="85" r="9" fill="#4E342E"/>
  <circle cx="60" cy="110" r="6" fill="#3E2723"/>
  <circle cx="90" cy="115" r="7" fill="#4E342E"/>
  <circle cx="120" cy="120" r="8" fill="#3E2723"/>
  <circle cx="70" cy="140" r="8" fill="#4E342E"/>
  <circle cx="105" cy="145" r="7" fill="#3E2723"/>
  <circle cx="135" cy="140" r="7" fill="#4E342E"/>
  <circle cx="85" cy="135" r="6" fill="#3E2723"/>
  
  <!-- Cookie Crumbs INSIDE the bite mark -->
  <circle cx="150" cy="35" r="2.5" fill="#F5B97F" opacity="0.85"/>
  <circle cx="158" cy="42" r="2" fill="#F5B97F" opacity="0.8"/>
  <circle cx="145" cy="50" r="2.2" fill="#F5B97F" opacity="0.85"/>
  <circle cx="162" cy="38" r="1.8" fill="#F5B97F" opacity="0.8"/>
  <circle cx="155" cy="55" r="2" fill="#F5B97F" opacity="0.8"/>
  <circle cx="168" cy="45" r="1.6" fill="#F5B97F" opacity="0.75"/>
  <circle cx="148" cy="28" r="1.9" fill="#F5B97F" opacity="0.8"/>
  <circle cx="165" cy="52" r="1.7" fill="#F5B97F" opacity="0.75"/>
  <circle cx="152" cy="48" r="1.5" fill="#F5B97F" opacity="0.75"/>
  <circle cx="160" cy="32" r="1.6" fill="#F5B97F" opacity="0.75"/>
  <circle cx="142" cy="40" r="1.8" fill="#F5B97F" opacity="0.8"/>
  <circle cx="157" cy="60" r="1.5" fill="#F5B97F" opacity="0.75"/>
  
  <!-- Cookie Crumbs OUTSIDE - dispersed widely around bite area -->
  <!-- Around top-right area near bite -->
  <circle cx="168" cy="28" r="2.5" fill="#F5B97F" opacity="0.85"/>
  <circle cx="175" cy="38" r="2" fill="#F5B97F" opacity="0.8"/>
  <circle cx="172" cy="50" r="1.8" fill="#F5B97F" opacity="0.75"/>
  <circle cx="165" cy="18" r="2.2" fill="#F5B97F" opacity="0.8"/>
  <circle cx="180" cy="45" r="1.5" fill="#F5B97F" opacity="0.75"/>
  
  <!-- Right side -->
  <circle cx="175" cy="60" r="2" fill="#F5B97F" opacity="0.8"/>
  <circle cx="182" cy="55" r="1.6" fill="#F5B97F" opacity="0.75"/>
  <circle cx="178" cy="70" r="1.8" fill="#F5B97F" opacity="0.75"/>
  
  <!-- Top area -->
  <circle cx="155" cy="15" r="2.3" fill="#F5B97F" opacity="0.85"/>
  <circle cx="145" cy="12" r="1.8" fill="#F5B97F" opacity="0.8"/>
  <circle cx="138" cy="18" r="2" fill="#F5B97F" opacity="0.8"/>
  <circle cx="150" cy="8" r="1.5" fill="#F5B97F" opacity="0.75"/>
  
  <!-- Top-right corner scattered -->
  <circle cx="185" cy="35" r="1.4" fill="#F5B97F" opacity="0.7"/>
  <circle cx="188" cy="48" r="1.3" fill="#F5B97F" opacity="0.7"/>
  <circle cx="183" cy="62" r="1.5" fill="#F5B97F" opacity="0.7"/>
  
  <!-- Top scattered -->
  <circle cx="160" cy="10" r="1.4" fill="#F5B97F" opacity="0.7"/>
  <circle cx="132" cy="15" r="1.6" fill="#F5B97F" opacity="0.75"/>
  <circle cx="140" cy="8" r="1.3" fill="#F5B97F" opacity="0.7"/>
  
  <!-- Additional dispersed crumbs -->
  <circle cx="170" cy="12" r="1.5" fill="#F5B97F" opacity="0.7"/>
  <circle cx="186" cy="28" r="1.3" fill="#F5B97F" opacity="0.7"/>
  <circle cx="178" cy="82" r="1.4" fill="#F5B97F" opacity="0.7"/>
  <circle cx="125" cy="20" r="1.5" fill="#F5B97F" opacity="0.7"/>
</svg>